<?xml version="1.0" encoding="UTF-8" standalone="no"?>
<svg width="292px" height="103px" viewBox="0 0 292 103" version="1.1" xmlns="http://www.w3.org/2000/svg" xmlns:xlink="http://www.w3.org/1999/xlink">
    <!-- Generator: Sketch 41.2 (35397) - http://www.bohemiancoding.com/sketch -->
    <title>ap-logo</title>
    <desc>Created with Sketch.</desc>
    <defs>
        <polygon id="path-1" points="207.586 102.94 0.06 102.94 0.06 0.555 103.823 0.555 207.586 0.555 207.586 102.94"></polygon>
    </defs>
    <g id="Page-1" stroke="none" stroke-width="1" fill="none" fill-rule="evenodd">
        <g id="ap-logo">
            <path d="M140.184,59.016 C145.268,59.016 147.678,58.667 147.678,54.771 C147.678,50.681 145.201,50.185 140.184,50.185 L121.293,50.195 L121.291,39.013 L139.631,39.013 C146.504,39.013 151.518,39.567 155.168,41.982 C159.32,44.767 161.299,48.856 161.299,54.492 C161.299,64.398 155.297,69.908 144.148,69.911 L135.605,69.911 L135.605,83.539 L121.299,83.541 L121.293,59.016 L140.184,59.016" id="Fill-1" fill="#C92235"></path>
            <path d="M186.002,73.56 C192.068,73.56 194.676,69.657 194.672,61.296 C194.672,52.94 192.068,49.036 185.998,49.036 C179.93,49.038 177.27,52.941 177.27,61.298 C177.27,69.659 179.932,73.56 186.002,73.56 Z M185.998,37.826 C200.305,37.826 209.098,46.8 209.098,61.296 C209.102,75.784 200.313,84.768 186.002,84.77 C171.703,84.77 162.846,75.789 162.846,61.3 C162.844,46.805 171.695,37.829 185.998,37.826 L185.998,37.826 Z" id="Fill-2" fill="#C92235"></path>
            <path d="M225.629,68.784 C225.998,72.689 228.396,74.173 232.291,74.173 C235.764,74.171 237.68,72.874 237.68,70.956 C237.68,68.164 235.084,67.918 229.816,66.56 C223.625,64.951 219.598,63.581 217.738,62.285 C214.27,59.812 212.6,56.404 212.6,52.001 C212.6,43.399 219.41,37.823 231.295,37.823 C242.816,37.821 249.98,42.99 250.443,52.681 L236.881,52.683 C236.848,49.212 234.521,47.918 231.053,47.918 C228.021,47.918 226.531,48.91 226.533,50.951 C226.533,53.308 228.824,53.74 233.156,54.855 C238.666,56.278 243.068,57.141 245.92,59.066 C249.82,61.661 251.615,64.884 251.615,69.46 C251.617,79.125 244.68,84.764 231.676,84.764 C219.723,84.764 212.244,79.108 211.813,68.786 L225.629,68.784" id="Fill-3" fill="#C92235"></path>
            <polyline id="Fill-4" fill="#C92235" points="264.613 50.699 251.795 50.701 251.793 38.993 291.482 38.992 291.486 50.697 278.912 50.698 278.922 83.522 264.619 83.524 264.613 50.699"></polyline>
            <path d="M126.014,22.419 L124.377,27.838 L127.588,27.838 L126.014,22.419 Z M123.893,29.548 L123.031,32.561 L120.988,32.561 L124.957,19.921 L127.104,19.921 L130.965,32.561 L128.912,32.561 L128.09,29.548 L123.893,29.548 L123.893,29.548 Z" id="Fill-5" fill="#C92235"></path>
            <path d="M133.264,19.921 L133.264,27.894 C133.264,29.288 133.313,30.35 134.01,31.321 C134.727,32.321 135.717,32.765 137.219,32.765 C138.5,32.765 139.436,32.458 140.068,31.824 C140.84,31.054 141.201,29.775 141.201,27.807 L141.201,19.921 L139.387,19.921 L139.387,28.068 C139.387,29.023 139.363,29.69 139.055,30.202 C138.672,30.845 138.07,31.156 137.219,31.156 C136.371,31.156 135.793,30.854 135.402,30.201 C135.084,29.674 135.059,29.006 135.059,28.048 L135.059,19.921 L133.264,19.921" id="Fill-6" fill="#C92235"></path>
            <path d="M144.193,28.857 C144.193,28.923 144.188,28.986 144.184,29.048 C144.18,29.109 144.174,29.171 144.174,29.234 C144.174,30.362 144.475,31.234 145.066,31.824 C145.699,32.451 146.654,32.765 147.918,32.765 C149.217,32.765 150.219,32.421 150.902,31.741 C151.518,31.128 151.828,30.276 151.828,29.217 C151.828,27.652 150.85,26.9 149.361,25.931 L148.666,25.484 C147.111,24.488 146.254,23.941 146.254,22.818 C146.254,22.423 146.408,22.053 146.688,21.771 C147.02,21.439 147.504,21.255 148.055,21.255 C148.588,21.255 149,21.398 149.279,21.679 C149.592,21.993 149.75,22.485 149.75,23.145 L149.75,23.528 L151.709,23.528 L151.709,23.092 C151.709,22.048 151.416,21.222 150.832,20.644 C150.215,20.029 149.305,19.714 148.123,19.714 C145.854,19.714 144.33,21.036 144.33,23.005 C144.33,24.843 145.305,25.551 147.164,26.743 L147.668,27.06 C149.061,27.935 149.904,28.46 149.904,29.456 C149.904,30.48 149.082,31.226 147.949,31.226 C147.41,31.226 147.014,31.097 146.746,30.829 C146.416,30.494 146.254,29.923 146.254,29.081 L146.254,28.73 L144.193,28.73 L144.193,28.857" id="Fill-7" fill="#C92235"></path>
            <polyline id="Fill-8" fill="#C92235" points="157.914 21.447 157.914 32.561 156.023 32.561 156.023 21.447 152.98 21.447 152.98 19.921 160.867 19.921 160.867 21.447 157.914 21.447"></polyline>
            <path d="M168.176,21.907 C167.885,21.61 167.424,21.462 166.809,21.462 L165.098,21.462 L165.098,25.308 L166.17,25.308 C167.9,25.308 168.607,24.704 168.607,23.231 C168.607,22.64 168.461,22.195 168.176,21.907 Z M168.711,26.016 C169.934,26.331 170.207,27.3 170.207,28.65 C170.207,28.909 170.199,29.142 170.195,29.37 C170.195,29.559 170.191,29.738 170.191,29.906 C170.191,30.835 170.293,31.65 170.512,32.398 L170.561,32.561 L168.605,32.561 L168.578,32.47 C168.314,31.62 168.305,30.671 168.301,29.669 C168.297,29.326 168.293,28.968 168.283,28.601 C168.248,27.312 167.916,26.9 166.928,26.9 L165.098,26.9 L165.098,32.561 L163.209,32.561 L163.209,19.921 L166.582,19.921 C168.09,19.921 169.131,20.222 169.752,20.841 C170.254,21.343 170.498,22.06 170.498,23.025 C170.498,24.54 169.91,25.524 168.711,26.016 L168.711,26.016 Z" id="Fill-9" fill="#C92235"></path>
            <path d="M177.775,22.419 L176.143,27.838 L179.344,27.838 L177.775,22.419 Z M179.846,29.548 L175.654,29.548 L174.797,32.561 L172.752,32.561 L176.723,19.921 L178.863,19.921 L182.729,32.561 L180.678,32.561 L179.846,29.548 L179.846,29.548 Z" id="Fill-10" fill="#C92235"></path>
            <polyline id="Fill-11" fill="#C92235" points="187.064 30.884 187.064 19.921 185.189 19.921 185.189 32.561 191.291 32.561 191.291 30.884 187.064 30.884"></polyline>
            <polyline id="Fill-12" fill="#C92235" points="193.365 32.561 195.16 32.561 195.16 19.921 193.242 19.921 193.242 32.561 193.365 32.561"></polyline>
            <g id="Group-16">
                <mask id="mask-2" fill="white">
                    <use xlink:href="#path-1"></use>
                </mask>
                <g id="Clip-14"></g>
                <path d="M202.629,22.419 L200.996,27.838 L204.205,27.838 L202.629,22.419 Z M204.707,29.548 L200.51,29.548 L199.65,32.561 L197.609,32.561 L201.578,19.921 L203.719,19.921 L207.586,32.561 L205.531,32.561 L204.707,29.548 L204.707,29.548 Z" id="Fill-13" fill="#C92235" mask="url(#mask-2)"></path>
                <path d="M102.445,98.905 C102.445,101.166 100.609,103 98.348,103 L4.098,103 C1.834,103 0,101.166 0,98.905 L0,4.652 C0,2.39 1.834,0.555 4.098,0.555 L98.348,0.555 C100.609,0.555 102.445,2.39 102.445,4.652 L102.445,98.905" id="Fill-15" fill="#C92235" mask="url(#mask-2)"></path>
            </g>
            <path d="M17.93,51.775 C17.93,66.021 26.86,78.164 39.429,82.932 L39.429,20.621 C26.86,25.388 17.93,37.531 17.93,51.775" id="Fill-17" fill="#FFFFFF"></path>
            <path d="M51.221,18.484 C50.3,18.484 49.385,18.517 48.484,18.585 L48.484,20.925 L48.653,20.925 C61.34,21.017 71.557,30.695 71.465,42.54 C71.381,54.333 61.102,63.827 48.484,63.814 L48.484,84.967 C49.385,85.045 50.3,85.073 51.221,85.073 C69.604,85.073 84.518,70.167 84.518,51.775 C84.518,33.388 69.604,18.484 51.221,18.484" id="Fill-18" fill="#FFFFFF"></path>
        </g>
    </g>
</svg>