<?xml version="1.0" encoding="UTF-8" standalone="no"?>
<svg width="143px" height="142px" viewBox="0 0 143 142" version="1.1" xmlns="http://www.w3.org/2000/svg" xmlns:xlink="http://www.w3.org/1999/xlink">
    <!-- Generator: Sketch 41.2 (35397) - http://www.bohemiancoding.com/sketch -->
    <title>case-studies</title>
    <desc>Created with Sketch.</desc>
    <defs>
        <path d="M4.25326204,0.0663 C3.94376763,0.0731143799 0.274,0.234714652 0.274,4.067 L0.274,137.938 C0.274,138.062 0.331,141.114 3.092,141.798 L138.989,141.798 C140.174,141.516 142.006,140.641 142.006,137.934 L142.006,4.067 C142.006,4.067 142.006,0.10597161 138.064807,0.0663 L4.25326205,0.0663 L4.25326204,0.0663 Z" id="path-1"></path>
        <path d="M0.274,0.147899359 L0.274,107.546 C0.274,109.876224 2.17104977,111.782017 4.49670797,111.7979 L75.0389,111.7979 L75.0389,0.147899359 L0.274,0.147899359 L0.274,0.147899359 Z" id="path-3"></path>
        <path d="M4.274,0.066 C4.274,0.066 0.274,0.066 0.274,4.067 L0.274,4.067 L0.274,137.938 C0.274,138.062 0.331,141.114 3.092,141.798 L3.092,141.798 L138.989,141.798 C140.174,141.516 142.006,140.641 142.006,137.934 L142.006,137.934 L142.006,4.067 C142.006,4.067 142.006,0.066 138.005,0.066 L138.005,0.066 L4.274,0.066 Z" id="path-5"></path>
        <polygon id="path-7" points="52.24635 74.922 0.408 74.922 0.408 0.767 52.24635 0.767 104.0847 0.767 104.0847 74.922 52.24635 74.922"></polygon>
        <polygon id="path-9" points="0.006 69.7924 0.006 0.9754 0.0055 0.9754 0.0055 69.7924 0.006 69.7924"></polygon>
    </defs>
    <g id="Page-1" stroke="none" stroke-width="1" fill="none" fill-rule="evenodd">
        <g id="AP-Interactive-Tool-v3" transform="translate(-1454.000000, -2310.000000)">
            <g id="Page-1" transform="translate(0.000000, 1752.000000)">
                <g id="case-studies" transform="translate(1454.000000, 558.000000)">
                    <g id="Group-36">
                        <g id="Group-33">
                            <mask id="mask-2" fill="white">
                                <use xlink:href="#path-1"></use>
                            </mask>
                            <g id="Clip-32"></g>
                            <path d="M142.006,137.5463 C142.006,139.8853 140.093,141.7983 137.754,141.7983 L4.526,141.7983 C2.187,141.7983 0.274,139.8853 0.274,137.5463 L0.274,4.3173 C0.274,1.9803 2.187,0.0663 4.526,0.0663 L137.754,0.0663 C140.093,0.0663 142.006,1.9803 142.006,4.3173 L142.006,137.5463 Z" id="Fill-31" fill="#5B54CC" mask="url(#mask-2)"></path>
                        </g>
                        <path d="M0.274,4.3188 L0.274,137.5468 C0.274,139.8848 2.187,141.7978 4.526,141.7978 L137.754,141.7978 C138.981,141.7978 140.081,141.2638 140.859,140.4258 L1.646,1.2138 C0.808,1.9918 0.274,3.0918 0.274,4.3188" id="Fill-34" fill="#6F67E0"></path>
                    </g>
                    <g id="Group-39" transform="translate(0.000000, 30.000000)">
                        <mask id="mask-4" fill="white">
                            <use xlink:href="#path-3"></use>
                        </mask>
                        <g id="Clip-38"></g>
                        <path d="M69.0699,78.7279 L54.1319,78.7279 C54.1319,79.8329 53.2369,80.7279 52.1319,80.7279 C51.0279,80.7279 50.1319,79.8329 50.1319,78.7279 L50.1289,78.7279 L50.0939,10.5959 C50.0929,4.8259 45.4099,0.1459 39.6399,0.1479 C33.8699,0.1489 29.1899,4.8319 29.1919,10.6019 L29.2129,52.8779 L29.1919,52.8779 C29.1919,53.9829 28.2959,54.8779 27.1909,54.8779 C26.0869,54.8779 25.1909,53.9829 25.1909,52.8779 C25.1909,52.8689 25.1939,52.8589 25.1939,52.8489 L25.1809,25.2389 C19.4109,25.2399 14.7309,29.9219 14.7329,35.6929 L14.7479,65.0719 C14.7529,65.1319 14.7659,65.1909 14.7659,65.2519 C14.7659,66.3569 13.8699,67.2519 12.7659,67.2519 C11.6609,67.2519 10.7659,66.3569 10.7659,65.2519 L10.7349,65.2519 L10.7219,42.8729 C4.9519,42.8739 0.2719,47.5559 0.2739,53.3269 L0.2859,71.0749 C0.2829,71.1529 0.2739,71.2299 0.2739,71.3089 L0.2739,111.7979 L75.0129,111.7979 C75.0209,111.5489 75.0369,111.3019 75.0389,111.0519 L75.0389,84.6979 C75.0389,81.4149 72.3529,78.7279 69.0699,78.7279" id="Fill-37" fill="#FAAF7A" mask="url(#mask-4)"></path>
                    </g>
                    <g>
                        <path d="M142.0055,92.6703 C142.0055,95.0093 140.0915,96.9233 137.7535,96.9233 L41.6595,96.9233 C39.3205,96.9233 37.4075,95.0093 37.4075,92.6703 L37.4075,26.0983 C37.4075,23.7603 39.3205,21.8463 41.6595,21.8463 L137.7535,21.8463 C140.0915,21.8463 142.0055,23.7603 142.0055,26.0983 L142.0055,92.6703 Z" id="Fill-40" fill="#FFFFFF"></path>
                        <path d="M82.2946,77.1635 C82.2946,78.3325 81.3376,79.2895 80.1686,79.2895 L52.1386,79.2895 C50.9696,79.2895 50.0126,78.3325 50.0126,77.1635 L50.0126,71.1275 C50.0126,69.9585 50.9696,69.0015 52.1386,69.0015 L80.1686,69.0015 C81.3376,69.0015 82.2946,69.9585 82.2946,71.1275 L82.2946,77.1635 Z" id="Fill-42" fill="#FFDB76"></path>
                        <path d="M82.2946,61.4613 C82.2946,62.6313 81.3376,63.5873 80.1686,63.5873 L52.1386,63.5873 C50.9696,63.5873 50.0126,62.6313 50.0126,61.4613 L50.0126,55.4263 C50.0126,54.2563 50.9696,53.3003 52.1386,53.3003 L80.1686,53.3003 C81.3376,53.3003 82.2946,54.2563 82.2946,55.4263 L82.2946,61.4613 Z" id="Fill-44" fill="#FFDB76"></path>
                        <path d="M82.2946,45.7603 C82.2946,46.9293 81.3376,47.8863 80.1686,47.8863 L52.1386,47.8863 C50.9696,47.8863 50.0126,46.9293 50.0126,45.7603 L50.0126,39.7243 C50.0126,38.5553 50.9696,37.5983 52.1386,37.5983 L80.1686,37.5983 C81.3376,37.5983 82.2946,38.5553 82.2946,39.7243 L82.2946,45.7603 Z" id="Fill-46" fill="#8177E7"></path>
                        <path d="M129.3995,77.1635 C129.3995,78.3325 128.4425,79.2895 127.2735,79.2895 L89.8355,79.2895 C88.6655,79.2895 87.7095,78.3325 87.7095,77.1635 L87.7095,39.7245 C87.7095,38.5555 88.6655,37.5985 89.8355,37.5985 L127.2735,37.5985 C128.4425,37.5985 129.3995,38.5555 129.3995,39.7245 L129.3995,77.1635 Z" id="Fill-48" fill="#00C1AA"></path>
                        <path d="M114.0807,49.726 C115.0597,52.142 114.9817,55.996 118.8247,58.491 C121.3727,47.155 114.7757,41.91 108.4387,42.076 C101.7397,42.253 95.7017,47.693 97.6187,58.828 C102.1057,57.691 104.4907,54.975 106.6367,51.952 C105.9227,54.527 104.5227,55.821 104.8937,55.713 C109.2157,54.455 110.7637,54.161 114.0807,49.726" id="Fill-50" fill="#190B12"></path>
                        <path d="M108.4142,75.1879 C86.2712,77.4229 96.6692,54.0859 97.9532,50.2769 C101.7912,49.7209 103.2272,46.5839 108.1222,44.7779 L108.1222,44.5729 C108.2202,44.6059 108.3182,44.6379 108.4142,44.6719 C108.5122,44.6379 108.6092,44.6059 108.7082,44.5729 L108.7082,44.7779 C113.6012,46.5839 115.0382,49.7209 118.8762,50.2769 C120.1602,54.0859 130.5592,77.4229 108.4142,75.1879" id="Fill-52" fill="#190B12"></path>
                        <path d="M117.6378,61.0756 C117.6378,66.2486 113.6138,70.4446 108.6498,70.4446 C103.6868,70.4446 99.6638,66.2486 99.6638,61.0756 L99.6638,53.4096 C99.6638,48.2376 103.6868,44.0436 108.6498,44.0436 C113.6138,44.0436 117.6378,48.2376 117.6378,53.4096 L117.6378,61.0756 Z" id="Fill-54" fill="#C67C5A"></path>
                        <path d="M114.0416,60.8881 C113.8546,60.8881 113.7066,60.7371 113.7066,60.5521 C113.7066,59.9841 113.2406,59.5191 112.6746,59.5191 C112.1046,59.5191 111.6436,59.9841 111.6436,60.5521 C111.6436,60.7371 111.4916,60.8881 111.3056,60.8881 C111.1206,60.8881 110.9686,60.7371 110.9686,60.5521 C110.9686,59.6121 111.7326,58.8461 112.6746,58.8461 C113.6146,58.8461 114.3786,59.6121 114.3786,60.5521 C114.3786,60.7371 114.2306,60.8881 114.0416,60.8881" id="Fill-56" fill="#190B12"></path>
                        <path d="M106.2487,60.8881 C106.0617,60.8881 105.9147,60.7371 105.9147,60.5521 C105.9147,59.9841 105.4477,59.5191 104.8817,59.5191 C104.3127,59.5191 103.8507,59.9841 103.8507,60.5521 C103.8507,60.7371 103.6997,60.8881 103.5127,60.8881 C103.3287,60.8881 103.1757,60.7371 103.1757,60.5521 C103.1757,59.6121 103.9407,58.8461 104.8817,58.8461 C105.8217,58.8461 106.5857,59.6121 106.5857,60.5521 C106.5857,60.7371 106.4377,60.8881 106.2487,60.8881" id="Fill-58" fill="#190B12"></path>
                        <path d="M108.4142,43.7914 C103.1412,43.7914 98.8272,48.4064 98.8272,54.0494 C104.1222,54.0494 108.4142,49.4564 108.4142,43.7914" id="Fill-60" fill="#190B12"></path>
                        <path d="M108.4142,43.7914 C108.4142,49.4564 112.7072,54.0494 118.0022,54.0494 C118.0022,48.4064 113.6872,43.7914 108.4142,43.7914" id="Fill-62" fill="#190B12"></path>
                        <path d="M109.1661,64.9232 L108.7171,65.3142 L108.2671,64.9232 C107.5101,65.0982 107.2161,65.7292 106.4241,66.0402 C106.8881,66.8272 107.6061,67.3042 108.7171,67.3042 C109.8261,67.3042 110.5471,66.8272 111.0101,66.0402 C110.2191,65.7292 109.9231,65.0982 109.1661,64.9232" id="Fill-64" fill="#ED1C24"></path>
                        <path d="M102.277,79.2896 C102.041,78.1616 101.245,76.2546 98.534,76.2546 L96.675,76.2546 C96.675,76.2546 93.403,76.2616 92.902,79.2896 L102.277,79.2896 Z" id="Fill-66" fill="#FF9000"></path>
                        <polygon id="Fill-68" fill="#FF9000" points="120.0978 79.2896 120.0978 76.2546 114.5558 76.2546 108.5628 78.7506 102.5048 76.2546 97.4778 76.2546 97.4048 79.2896"></polygon>
                        <path d="M124.2072,79.2896 C123.9272,78.0166 123.0202,76.1646 120.0982,76.2536 L117.9642,76.3376 C117.9642,76.3376 115.1162,76.2386 114.5312,79.2896 L124.2072,79.2896 Z" id="Fill-70" fill="#FF9000"></path>
                        <mask id="mask-6" fill="white">
                            <use xlink:href="#path-5"></use>
                        </mask>
                        <g id="Clip-73"></g>
                        <polygon id="Fill-72" fill="#C67C5A" mask="url(#mask-6)" points="105.605 76.337 111.692 76.337 111.692 68.616 105.605 68.616"></polygon>
                        <polygon id="Fill-74" fill="#FFFFFF" mask="url(#mask-6)" points="113.5553 79.2896 114.5563 76.2546 102.5043 76.2546 103.5703 79.2896"></polygon>
                        <path d="M107.068,79.2896 L110.229,79.2896 C111.105,78.7546 111.692,77.7936 111.692,76.6916 L111.692,74.2016 C111.692,72.5206 110.329,71.1576 108.649,71.1576 C106.968,71.1576 105.606,72.5206 105.606,74.2016 L105.606,76.6916 C105.606,77.7936 106.193,78.7546 107.068,79.2896" id="Fill-75" fill="#C67C5A" mask="url(#mask-6)"></path>
                        <g id="Group-82" mask="url(#mask-6)">
                            <g transform="translate(37.000000, 22.000000)">
                                <g id="Group-78">
                                    <mask id="mask-8" fill="white">
                                        <use xlink:href="#path-7"></use>
                                    </mask>
                                    <g id="Clip-77"></g>
                                    <path d="M1.3297,0.767 C0.7607,1.336 0.4077,2.121 0.4077,2.983 L0.4077,71.784 C0.4077,73.509 1.8197,74.922 3.5457,74.922 L101.8687,74.922 C102.7307,74.922 103.5157,74.569 104.0847,73.999 L1.3297,0.767 Z" id="Fill-76" fill="#F9F6F3" mask="url(#mask-8)"></path>
                                </g>
                                <g id="Group-81" transform="translate(105.000000, 2.000000)">
                                    <mask id="mask-10" fill="white">
                                        <use xlink:href="#path-9"></use>
                                    </mask>
                                    <g id="Clip-80"></g>
                                    <polygon id="Fill-79" fill="#F9F6F3" mask="url(#mask-10)" points="0.0055 69.7924 0.0055 69.7834 0.0055 0.9824 0.0055 0.9754"></polygon>
                                </g>
                            </g>
                        </g>
                        <path d="M75.0016,69.3314 L75.0396,118.1484 C75.0406,123.9194 70.3606,128.6014 64.5906,128.6024 C58.8196,128.6044 54.1376,123.9254 54.1356,118.1544 L54.0986,69.3364 C54.0966,63.5664 58.7766,58.8844 64.5466,58.8824 C70.3176,58.8804 75.0006,63.5604 75.0016,69.3314" id="Fill-83" fill="#FAAF7A" mask="url(#mask-6)"></path>
                    </g>
                </g>
            </g>
        </g>
    </g>
</svg>