<?xml version="1.0" encoding="UTF-8" standalone="no"?>
<svg width="143px" height="142px" viewBox="0 0 143 142" version="1.1" xmlns="http://www.w3.org/2000/svg" xmlns:xlink="http://www.w3.org/1999/xlink">
    <!-- Generator: Sketch 41.2 (35397) - http://www.bohemiancoding.com/sketch -->
    <title>fast-facts</title>
    <desc>Created with Sketch.</desc>
    <defs>
        <path d="M4.68757687,0.0668 C4.2729872,0.0796809475 0.728,0.299960404 0.728,4.067 L0.728,137.937 C0.728,138.038 0.774,141.112 3.546,141.798 L139.443,141.798 C140.612792,141.519619 142.413083,140.663362 142.4591,138.037321 L142.4591,4.02440448 C142.445323,3.59888289 142.220639,0.127287443 138.556458,0.0668 L4.68757687,0.0668 L4.68757687,0.0668 Z" id="path-1"></path>
        <path d="M4.67564435,0.0672 C4.20955029,0.0839271127 0.728,0.333817807 0.728,4.067 L0.728,52.3832 L53.0426,52.3832 L53.0426,0.0672 L4.67564435,0.0672 L4.67564435,0.0672 Z" id="path-3"></path>
        <polygon id="path-5" points="0.728 0.8969 0.728 122.9849 121.3261 122.9849 121.3261 0.8969 0.728 0.8969"></polygon>
        <path d="M0.1221,51.0883479 C0.490725111,51.3984695 0.956778806,51.6521826 1.546,51.798 L120.7211,51.798 L120.7211,0.3491 L0.1221,0.3491 L0.1221,51.0883479 L0.1221,51.0883479 Z" id="path-7"></path>
    </defs>
    <g id="Page-1" stroke="none" stroke-width="1" fill="none" fill-rule="evenodd">
        <g id="AP-Interactive-Tool-v3" transform="translate(-776.000000, -2310.000000)">
            <g id="Page-1" transform="translate(0.000000, 1752.000000)">
                <g id="fast-facts" transform="translate(776.000000, 558.000000)">
                    <g id="Group-22">
                        <g id="Group-8">
                            <mask id="mask-2" fill="white">
                                <use xlink:href="#path-1"></use>
                            </mask>
                            <g id="Clip-7"></g>
                            <path d="M4.9791,0.0668 C2.6391,0.0668 0.7271,1.9818 0.7271,4.3188 L0.7271,137.5478 C0.7271,139.8848 2.6391,141.7988 4.9791,141.7988 L138.2081,141.7988 C140.5451,141.7988 142.4591,139.8848 142.4591,137.5478 L142.4591,4.3188 C142.4591,1.9818 140.5451,0.0668 138.2081,0.0668 L4.9791,0.0668" id="Fill-6" fill="#8378E7" mask="url(#mask-2)"></path>
                        </g>
                        <g id="Group-11">
                            <mask id="mask-4" fill="white">
                                <use xlink:href="#path-3"></use>
                            </mask>
                            <g id="Clip-10"></g>
                            <polygon id="Fill-9" fill="#ECE5DF" mask="url(#mask-4)" points="0.7266 52.3832 0.7266 49.4082 50.0686 0.0672 53.0426 0.0672"></polygon>
                        </g>
                        <polygon id="Fill-12" fill="#ECE5DF" points="142.459 27.0756 142.459 30.0536 122.885 49.6246 121.399 48.1366"></polygon>
                        <polygon id="Fill-14" fill="#ECE5DF" points="56.0762 116.4349 30.7142 141.7969 27.7362 141.7969 54.5872 114.9469 52.9552 113.3139 64.2012 106.8209 57.7092 118.0679"></polygon>
                        <g id="Group-18" transform="translate(0.000000, 9.000000)">
                            <mask id="mask-6" fill="white">
                                <use xlink:href="#path-5"></use>
                            </mask>
                            <g id="Clip-17"></g>
                            <polygon id="Fill-16" fill="#5044DE" mask="url(#mask-6)" points="114.8331 12.1439 113.2001 10.5109 0.7271 122.9849 0.7271 120.0069 111.7111 9.0229 110.0791 7.3899 121.3261 0.8969"></polygon>
                        </g>
                        <g id="Group-21" transform="translate(2.000000, 90.000000)">
                            <mask id="mask-8" fill="white">
                                <use xlink:href="#path-7"></use>
                            </mask>
                            <g id="Clip-20"></g>
                            <polygon id="Fill-19" fill="#5044DE" mask="url(#mask-8)" points="114.2281 11.5961 112.5951 9.9631 0.1221 122.4371 0.1221 119.4591 111.1061 8.4751 109.4741 6.8421 120.7211 0.3491"></polygon>
                        </g>
                    </g>
                    <g id="Group-30" transform="translate(0.000000, 28.000000)">
                        <polygon id="Fill-23" fill="#41BEAC" points="102.3599 35.9086 113.6069 29.4166 107.1139 40.6636 105.4819 39.0306 73.8309 70.6806 72.3419 69.1916 103.9929 37.5416"></polygon>
                        <g id="Group-27" fill="#41BEAC">
                            <polygon id="Fill-25" points="51.9799 6.6877 53.6129 8.3207 0.7279 61.2057 0.7279 64.1837 55.1019 9.8087 56.7349 11.4417 63.2269 0.1947"></polygon>
                        </g>
                        <polygon id="Fill-28" fill="#ECE5DF" points="130.4586 93.6527 116.6026 107.5087 115.1166 106.0207 128.9696 92.1647 127.3376 90.5317 138.5846 84.0387 132.0916 95.2857"></polygon>
                    </g>
                </g>
            </g>
        </g>
    </g>
</svg>