<svg id="Layer_1" data-name="Layer 1" xmlns="http://www.w3.org/2000/svg" xmlns:xlink="http://www.w3.org/1999/xlink" viewBox="0 0 141.73 141.73"><defs><style>.cls-1{fill:#695b56;}.cls-2{fill:#5f524d;}.cls-3{fill:url(#linear-gradient);}.cls-4{fill:#ffdb7a;}.cls-5{fill:#ffdf8a;}.cls-6{fill:url(#linear-gradient-2);}.cls-7{fill:#ffdb77;}</style><linearGradient id="linear-gradient" x1="39.26" y1="141.53" x2="39.26" y2="80.67" gradientUnits="userSpaceOnUse"><stop offset="0" stop-color="#ffdb77" stop-opacity="0.3"/><stop offset="0.03" stop-color="#ffdb77" stop-opacity="0.35"/><stop offset="0.14" stop-color="#ffdb77" stop-opacity="0.52"/><stop offset="0.27" stop-color="#ffdb77" stop-opacity="0.67"/><stop offset="0.39" stop-color="#ffdb77" stop-opacity="0.79"/><stop offset="0.52" stop-color="#ffdb77" stop-opacity="0.88"/><stop offset="0.66" stop-color="#ffdb77" stop-opacity="0.95"/><stop offset="0.81" stop-color="#ffdb77" stop-opacity="0.99"/><stop offset="1" stop-color="#ffdb77"/></linearGradient><linearGradient id="linear-gradient-2" x1="102.66" y1="141.71" x2="102.66" y2="80.86" xlink:href="#linear-gradient"/></defs><title>Icon-181m-visits</title><rect class="cls-1" x="0.57" y="0.57" width="141.73" height="141.73" rx="4.25" ry="4.25"/><path class="cls-2" d="M.57,5V138.19a4.27,4.27,0,0,0,4.26,4.25H138.05a4.23,4.23,0,0,0,3.11-1.37L2,1.86A4.2,4.2,0,0,0,.57,5Z"/><rect class="cls-1" width="141.73" height="141.73" rx="4.25" ry="4.25"/><path class="cls-2" d="M.57,3.68V136.91a4.27,4.27,0,0,0,4.26,4.25H138.05a4.27,4.27,0,0,0,3.11-1.37L2,.57A4.24,4.24,0,0,0,.57,3.68Z"/><path class="cls-3" d="M66.8,119.19a6.09,6.09,0,0,0-6-6.18H17.73a6.18,6.18,0,0,0,0,12.35H60.8A6.09,6.09,0,0,0,66.8,119.19Zm-6-10H17.73a6.18,6.18,0,0,1,0-12.35H60.8a6.18,6.18,0,0,1,0,12.35ZM60.8,93H17.73a6.18,6.18,0,0,1,0-12.36H60.8A6.18,6.18,0,0,1,60.8,93Zm0,48.5H17.73a6.18,6.18,0,0,1,0-12.35H60.8a6.18,6.18,0,0,1,0,12.35Z"/><circle class="cls-4" cx="37.96" cy="44.53" r="27.43" transform="translate(-12.39 74.32) rotate(-80.17)"/><path class="cls-5" d="M18.45,25.21,57.25,64a27.43,27.43,0,0,0-38.8-38.79Z"/><path class="cls-1" d="M37.56,58.13V55.37a10.55,10.55,0,0,1-5.2-1.58A9.14,9.14,0,0,1,29,49.91L33,48a5.39,5.39,0,0,0,2,2.44,6.21,6.21,0,0,0,2.58.92V46.12a20.69,20.69,0,0,1-2.37-.66,9.18,9.18,0,0,1-2.4-1.21,6.63,6.63,0,0,1-1.86-2,5.7,5.7,0,0,1-.74-3,6.28,6.28,0,0,1,.53-2.63,5.91,5.91,0,0,1,1.49-2,7,7,0,0,1,2.32-1.33,10.09,10.09,0,0,1,3-.54V30.92h2v1.87a10.84,10.84,0,0,1,3.84,1.29,8.48,8.48,0,0,1,3.1,3.06l-3.59,2.07a6.91,6.91,0,0,0-1.53-1.53,5.39,5.39,0,0,0-1.82-.8v4.7a21.86,21.86,0,0,1,2.56.79,9.5,9.5,0,0,1,2.39,1.3,6.7,6.7,0,0,1,1.74,2,5.55,5.55,0,0,1,.68,2.82,6.49,6.49,0,0,1-.5,2.53A6.36,6.36,0,0,1,45,53.1a7.41,7.41,0,0,1-2.3,1.51,9.59,9.59,0,0,1-3.14.73v2.79Zm-2.7-19.31a1.69,1.69,0,0,0,.73,1.51,6.41,6.41,0,0,0,2,.82V36.71a5.7,5.7,0,0,0-1,.15,2.78,2.78,0,0,0-.86.36,2.13,2.13,0,0,0-.59.64A1.92,1.92,0,0,0,34.86,38.82ZM42.3,49a1.82,1.82,0,0,0-.76-1.61,5.53,5.53,0,0,0-2-.79v4.87a3.6,3.6,0,0,0,2.08-.8A2.22,2.22,0,0,0,42.3,49Z"/><path class="cls-6" d="M130.2,119.37a6.1,6.1,0,0,0-6-6.18H81.13a6.18,6.18,0,0,0,0,12.35H124.2A6.09,6.09,0,0,0,130.2,119.37Zm-6-10H81.13a6.18,6.18,0,0,1,0-12.36H124.2a6.18,6.18,0,0,1,0,12.36Zm0-16.17H81.13a6.18,6.18,0,0,1,0-12.35H124.2a6.18,6.18,0,0,1,0,12.35Zm0,48.5H81.13a6.18,6.18,0,0,1,0-12.35H124.2a6.18,6.18,0,0,1,0,12.35Z"/><path class="cls-7" d="M130.2,54.7a6.1,6.1,0,0,0-6-6.18H81.13a6.18,6.18,0,0,0,0,12.36H124.2A6.1,6.1,0,0,0,130.2,54.7Z"/><path class="cls-7" d="M124.2,44.71H81.13a6.18,6.18,0,0,1,0-12.35H124.2a6.18,6.18,0,0,1,0,12.35Z"/><path class="cls-7" d="M124.2,28.54H81.13a6.18,6.18,0,0,1,0-12.35H124.2a6.18,6.18,0,0,1,0,12.35Z"/><path class="cls-7" d="M124.2,12.37H81.13a6.09,6.09,0,0,1-6-6.17,6.1,6.1,0,0,1,6-6.18H124.2a6.1,6.1,0,0,1,6,6.18A6.09,6.09,0,0,1,124.2,12.37Z"/><path class="cls-7" d="M124.2,77H81.13a6.18,6.18,0,0,1,0-12.35H124.2a6.18,6.18,0,0,1,0,12.35Z"/></svg>