<svg xmlns="http://www.w3.org/2000/svg" xmlns:xlink="http://www.w3.org/1999/xlink" viewBox="0 0 141.73 141.73"><defs><style>.cls-1{fill:#fff;}.cls-2{isolation:isolate;}.cls-3{fill:#ffdb77;}.cls-4{fill:#c67c5a;}.cls-5{fill:#cdc4c2;}.cls-6{fill:#5f524d;}.cls-7,.cls-9{fill:#988a89;}.cls-8{fill:#dc1f29;}.cls-12,.cls-9{mix-blend-mode:multiply;}.cls-10{clip-path:url(#clip-path);}.cls-11{clip-path:url(#clip-path-2);}</style><clipPath id="clip-path"><path class="cls-1" d="M123.09,105.24a5,5,0,0,0,3.2,4.65V100.6a5,5,0,0,0-3.2,4.64"/></clipPath><clipPath id="clip-path-2"><path class="cls-1" d="M127.64,100.3v.35h0a3.2,3.2,0,1,1,0,6.39v3.15h.41a5,5,0,0,0,0-9.91h-.41"/></clipPath></defs><title>Icon-retailers</title><g class="cls-2"><g id="Layer_1" data-name="Layer 1"><path class="cls-3" d="M137.48,0H4.25A4.26,4.26,0,0,0,0,4.25V70.87H33.83V37.07a3.25,3.25,0,0,1,3.24-3.24H138.5a3.24,3.24,0,0,1,3.23,3.24V4.25A4.26,4.26,0,0,0,137.48,0Z"/><path id="_Path_" data-name="&lt;Path&gt;" class="cls-1" d="M50.27,24.83h-1A9.61,9.61,0,0,0,49.49,23a9.64,9.64,0,0,0-18-4.93,9.53,9.53,0,0,0-4.82-1.31,9.68,9.68,0,0,0-9.51,8A8.58,8.58,0,0,0,17.4,42H50.27a8.58,8.58,0,0,0,0-17.16Z"/><path class="cls-4" d="M33.83,137.48V70.87H0v66.61a4.26,4.26,0,0,0,4.25,4.25H38.08A4.27,4.27,0,0,1,33.83,137.48Z"/><path class="cls-5" d="M138.5,85.66H37.07a3.12,3.12,0,0,1-1.26-.26,3.24,3.24,0,0,1-2-3v55.06a4.27,4.27,0,0,0,4.25,4.25h9.08V90h37v51.69h30.17V109.11a13.69,13.69,0,0,1,27.37,0V82.42A3.24,3.24,0,0,1,138.5,85.66Z"/><path class="cls-1" d="M122.1,96.8l-.13.06Z"/><path class="cls-1" d="M126.45,95.53h0a14.17,14.17,0,0,1,1.6-.1A13.62,13.62,0,0,1,134.44,97V79.11Z"/><path class="cls-1" d="M120.7,97.58l12.8-26.31H93.63v43.25h9.58l20.32-41.81h4.75L108,114.52h6.4v-5.41a13.65,13.65,0,0,1,6.34-11.53Z"/><path class="cls-1" d="M125,95.79l-.19,0Z"/><path class="cls-1" d="M123.52,96.21l-.2.07Z"/><path class="cls-6" d="M126.45,95.53l14-28.74h-4.75l-15,30.79A13.46,13.46,0,0,1,126.45,95.53Z"/><polygon class="cls-6" points="128.28 72.71 123.53 72.71 103.21 114.52 107.96 114.52 128.28 72.71"/><rect class="cls-7" x="47.16" y="90.04" width="15.18" height="51.69"/><path class="cls-8" d="M138.5,33.83H37.07a3.25,3.25,0,0,0-3.24,3.24V82.42a3.25,3.25,0,0,0,3.24,3.24H138.5a3.24,3.24,0,0,0,3.23-3.24V37.07A3.24,3.24,0,0,0,138.5,33.83Z"/><path id="SVGID" class="cls-1" d="M75,53.43a12.78,12.78,0,0,0,8.24,11.95V41.48a12.78,12.78,0,0,0-8.24,12"/><path id="SVGID-2" data-name="SVGID" class="cls-1" d="M86.73,40.7v.9h.07c4.86,0,8.78,3.75,8.74,8.29s-4,8.16-8.81,8.16v8.11c.35,0,.7,0,1,0a12.77,12.77,0,0,0,0-25.54c-.35,0-.7,0-1,0"/><path class="cls-9" d="M33.83,70.87V82.42a3.25,3.25,0,0,0,3.24,3.24H138.5a3.24,3.24,0,0,0,3.23-3.24V70.87Z"/><path class="cls-8" d="M141.73,109.11a13.69,13.69,0,0,0-27.37,0v32.62h27.37Z"/><path class="cls-1" d="M123.09,105.24a5,5,0,0,0,3.2,4.65V100.6a5,5,0,0,0-3.2,4.64"/><g class="cls-10"><rect class="cls-1" x="123.09" y="100.6" width="3.2" height="9.28"/></g><path class="cls-1" d="M127.64,100.3v.35h0a3.2,3.2,0,1,1,0,6.39v3.15h.41a5,5,0,0,0,0-9.91h-.41"/><g class="cls-11"><rect class="cls-1" x="127.64" y="100.29" width="5.37" height="9.92"/></g><g class="cls-12"><path class="cls-7" d="M135.75,117.78H120.32a.85.85,0,0,1-.84-.85v-3.19a.87.87,0,0,1,.86-.87h15.43a.85.85,0,0,1,.85.85v3.19A.87.87,0,0,1,135.75,117.78Z"/></g><rect class="cls-6" x="62.34" y="90.04" width="21.85" height="51.69"/></g></g></svg>