<?xml version="1.0" encoding="UTF-8" standalone="no"?>
<svg width="575px" height="604px" viewBox="0 0 575 604" version="1.1" xmlns="http://www.w3.org/2000/svg" xmlns:xlink="http://www.w3.org/1999/xlink">
    <!-- Generator: Sketch 41.2 (35397) - http://www.bohemiancoding.com/sketch -->
    <title>ff_img</title>
    <desc>Created with Sketch.</desc>
    <defs>
        <polygon id="path-1" points="0.77 603.957 604.177 603.957 604.177 0.549 0.77 0.549"></polygon>
    </defs>
    <g id="Page-1" stroke="none" stroke-width="1" fill="none" fill-rule="evenodd">
        <g id="AP-Interactive-Tool-v3" transform="translate(-2508.000000, -2228.000000)">
            <g id="Page-8" transform="translate(2188.000000, 1752.000000)">
                <g id="ff_img" transform="translate(320.000000, 476.000000)">
                    <path d="M574.8911,233.4208 C574.8911,218.8988 563.4471,207.1268 549.3211,207.1268 L365.9681,207.1268 C351.8471,207.1268 340.4031,218.8988 340.4031,233.4208 C340.4031,247.9428 351.8471,259.7188 365.9681,259.7188 L549.3211,259.7188 C563.4471,259.7188 574.8911,247.9428 574.8911,233.4208 Z" id="Fill-301" fill="#FFDB77"></path>
                    <path d="M549.3217,190.8844 L365.9687,190.8844 C351.8477,190.8844 340.4037,179.1124 340.4037,164.5904 C340.4037,150.0694 351.8477,138.2934 365.9687,138.2934 L549.3217,138.2934 C563.4437,138.2934 574.8917,150.0694 574.8917,164.5904 C574.8917,179.1124 563.4437,190.8844 549.3217,190.8844" id="Fill-303" fill="#FFDB77"></path>
                    <path d="M549.3217,122.0553 L365.9687,122.0553 C351.8477,122.0553 340.4037,110.2833 340.4037,95.7613 C340.4037,81.2403 351.8477,69.4643 365.9687,69.4643 L549.3217,69.4643 C563.4437,69.4643 574.8917,81.2403 574.8917,95.7613 C574.8917,110.2833 563.4437,122.0553 549.3217,122.0553" id="Fill-305" fill="#FFDB77"></path>
                    <path d="M549.3217,53.2263 L365.9687,53.2263 C351.8477,53.2263 340.4037,41.4503 340.4037,26.9283 C340.4037,12.4063 351.8477,0.6353 365.9687,0.6353 L549.3217,0.6353 C563.4437,0.6353 574.8917,12.4063 574.8917,26.9283 C574.8917,41.4503 563.4437,53.2263 549.3217,53.2263" id="Fill-307" fill="#FFDB77"></path>
                    <path d="M549.3217,328.5464 L365.9687,328.5464 C351.8477,328.5464 340.4037,316.7744 340.4037,302.2524 C340.4037,287.7314 351.8477,275.9554 365.9687,275.9554 L549.3217,275.9554 C563.4437,275.9554 574.8917,287.7314 574.8917,302.2524 C574.8917,316.7744 563.4437,328.5464 549.3217,328.5464" id="Fill-309" fill="#FFDB77"></path>
                    <path d="M429.4414,592.6748 C429.4414,598.8778 424.3664,603.9528 418.1594,603.9528 L64.6944,603.9528 C58.4874,603.9528 53.4164,598.8778 53.4164,592.6748 L53.4164,239.2138 C53.4164,233.0068 58.4874,227.9278 64.6944,227.9278 L418.1594,227.9278 C424.3664,227.9278 429.4414,233.0068 429.4414,239.2138 L429.4414,592.6748 Z" id="Fill-311" fill="#CDC4C2"></path>
                    <mask id="mask-2" fill="white">
                        <use xlink:href="#path-1"></use>
                    </mask>
                    <g id="Clip-314"></g>
                    <polygon id="Fill-313" fill="#1B0F14" mask="url(#mask-2)" points="53.412 349.539 429.441 349.539 429.441 276.367 53.412 276.367"></polygon>
                    <path d="M376.798,592.6748 C376.798,598.8778 371.723,603.9528 365.516,603.9528 L12.051,603.9528 C5.844,603.9528 0.769,598.8778 0.769,592.6748 L0.769,239.2138 C0.769,233.0068 5.844,227.9278 12.051,227.9278 L365.516,227.9278 C371.723,227.9278 376.798,233.0068 376.798,239.2138 L376.798,592.6748 Z" id="Fill-315" fill="#93D5D4" mask="url(#mask-2)"></path>
                    <path d="M340.9802,310.8477 C340.9802,315.9477 336.8032,320.1247 331.6992,320.1247 L245.5252,320.1247 C240.4212,320.1247 236.2442,315.9477 236.2442,310.8477 L236.2442,290.0507 C236.2442,284.9497 240.4212,280.7777 245.5252,280.7777 L331.6992,280.7777 C336.8032,280.7777 340.9802,284.9497 340.9802,290.0507 L340.9802,310.8477 Z" id="Fill-316" fill="#CDC4C2" mask="url(#mask-2)"></path>
                    <path d="M0.7678,239.2121 L0.7678,592.6731 C0.7678,598.8761 5.8428,603.9551 12.0498,603.9551 L365.5148,603.9551 C368.6138,603.9551 371.4368,602.6861 373.4848,600.6421 L4.0838,231.2421 C2.0408,233.2861 0.7678,236.1081 0.7678,239.2121" id="Fill-317" fill="#2BBBA7" mask="url(#mask-2)"></path>
                    <path d="M261.4954,545.1493 C261.4954,550.2543 257.3184,554.4303 252.2144,554.4303 L45.8674,554.4303 C40.7634,554.4303 36.5864,550.2543 36.5864,545.1493 L36.5864,527.6003 C36.5864,522.5003 40.7634,518.3233 45.8674,518.3233 L252.2144,518.3233 C257.3184,518.3233 261.4954,522.5003 261.4954,527.6003 L261.4954,545.1493 Z" id="Fill-318" fill="#FFFFFF" mask="url(#mask-2)"></path>
                    <path d="M261.4954,491.9069 C261.4954,497.0069 257.3184,501.1839 252.2144,501.1839 L45.8674,501.1839 C40.7634,501.1839 36.5864,497.0069 36.5864,491.9069 L36.5864,474.3539 C36.5864,469.2529 40.7634,465.0769 45.8674,465.0769 L252.2144,465.0769 C257.3184,465.0769 261.4954,469.2529 261.4954,474.3539 L261.4954,491.9069 Z" id="Fill-319" fill="#FFFFFF" mask="url(#mask-2)"></path>
                    <path d="M73.7921,346.5364 C72.4251,347.9074 70.2031,347.9074 68.8321,346.5364 L24.6531,302.3574 C23.2871,300.9914 23.2871,298.7684 24.6531,297.3974 L67.6871,254.3644 C69.0621,252.9894 71.2801,252.9894 72.6471,254.3644 L116.8301,298.5434 C118.2011,299.9094 118.2011,302.1324 116.8301,303.5024 L73.7921,346.5364 Z" id="Fill-320" fill="#B5ADD6" mask="url(#mask-2)"></path>
                    <path d="M124.3608,346.5364 C122.9898,347.9074 120.7678,347.9074 119.4008,346.5364 L75.2218,302.3574 C73.8508,300.9914 73.8508,298.7684 75.2218,297.3974 L118.2558,254.3644 C119.6268,252.9894 121.8488,252.9894 123.2158,254.3644 L167.3948,298.5434 C168.7698,299.9094 168.7698,302.1324 167.3948,303.5024 L124.3608,346.5364 Z" id="Fill-321" fill="#5457A6" mask="url(#mask-2)"></path>
                </g>
            </g>
        </g>
    </g>
</svg>