<svg id="Layer_1" data-name="Layer 1" xmlns="http://www.w3.org/2000/svg" viewBox="0 0 141.73 141.73"><defs><style>.cls-1{fill:#ffe7a9;}.cls-2{fill:#ffdb77;}.cls-3{fill:#f26333;}.cls-4{fill:#f79020;}.cls-5{font-size:102.01px;fill:#695b56;font-family:APLetter-Bold, AP Letter;font-weight:700;}</style></defs><title>Icon-30years</title><rect class="cls-1" y="-0.07" width="141.73" height="141.73" rx="4.25" ry="4.25"/><path class="cls-2" d="M0,4.32V137.55a4.26,4.26,0,0,0,4.25,4.25H137.48a4.23,4.23,0,0,0,3.11-1.37L1.37,1.21A4.23,4.23,0,0,0,0,4.32Z"/><path class="cls-3" d="M86.9,44.39,80.73,34.26l0,1.51a.79.79,0,0,1-.88.78l-2.49-.25A1.45,1.45,0,0,0,76,37l-1.22,2.2a.79.79,0,0,1-1.14.28l-1.8-1.19-1,1.66L77.2,50.3c.34.56.78.51,1-.1l1.63-4.76a1.5,1.5,0,0,1,1.55-.95l5,.73C87,45.32,87.24,44.94,86.9,44.39Z"/><path class="cls-3" d="M71.59,38.07a1.43,1.43,0,0,0-1.44,0l-2.1,1.38a.79.79,0,0,1-1.14-.28L65.69,37a1.44,1.44,0,0,0-1.27-.67l-2.5.25a.8.8,0,0,1-.88-.78l0-1.51L54.83,44.39c-.34.55-.09.93.55.83l5-.73a1.5,1.5,0,0,1,1.55.95l1.63,4.76c.21.61.66.66,1,.1l6.33-10.38,1-1.66Z"/><path class="cls-4" d="M61.92,36.55l2.5-.25a1.44,1.44,0,0,1,1.27.67l1.22,2.2a.79.79,0,0,0,1.14.28l2.1-1.38a1.43,1.43,0,0,1,1.44,0l.29.19,1.8,1.19a.79.79,0,0,0,1.14-.28L76,37a1.45,1.45,0,0,1,1.28-.67l2.49.25a.79.79,0,0,0,.88-.78l0-1.51,0-1a1.44,1.44,0,0,1,.82-1.19l2.32-.94a.79.79,0,0,0,.42-1.1l-1.12-2.24a1.44,1.44,0,0,1,.18-1.44L85,24.44a.8.8,0,0,0-.14-1.17l-2-1.47a1.43,1.43,0,0,1-.52-1.35L82.85,18a.79.79,0,0,0-.67-1l-2.48-.36a1.43,1.43,0,0,1-1.08-1L78,13.3a.78.78,0,0,0-1-.54l-2.36.83a1.44,1.44,0,0,1-1.4-.34l-1.71-1.84a.78.78,0,0,0-1.17,0l-1.71,1.84a1.44,1.44,0,0,1-1.4.34l-2.36-.83a.78.78,0,0,0-1,.54l-.66,2.42a1.43,1.43,0,0,1-1.08,1L59.55,17a.79.79,0,0,0-.67,1l.55,2.45a1.44,1.44,0,0,1-.51,1.35l-2,1.47a.8.8,0,0,0-.15,1.17l1.62,1.91a1.44,1.44,0,0,1,.18,1.44L57.42,30a.79.79,0,0,0,.42,1.1l2.32.94A1.44,1.44,0,0,1,61,33.26l0,1,0,1.51A.8.8,0,0,0,61.92,36.55Z"/><text class="cls-5" transform="translate(9.19 125.36)">30</text></svg>