<svg id="Layer_1" data-name="Layer 1" xmlns="http://www.w3.org/2000/svg" viewBox="0 0 141.73 141.73"><defs><style>.cls-1{fill:#695b56;}.cls-2{fill:#5f524d;}.cls-3{fill:#fff;}.cls-4{fill:#7f726d;}.cls-5{fill:#cdc4c2;}.cls-6{fill:#1c0f15;}.cls-7{fill:#94d5d4;}.cls-8{fill:#2bbba7;}.cls-9{fill:#b4add6;}.cls-10{fill:#5557a6;}</style></defs><title>Icon-Artboard 1 copy 3</title><rect class="cls-1" x="0.1" width="141.53" height="141.53" rx="4.25" ry="4.25"/><path class="cls-2" d="M.1,4.38v133a4.26,4.26,0,0,0,4.25,4.24h133a4.22,4.22,0,0,0,3.1-1.37l-139-139A4.22,4.22,0,0,0,.1,4.38Z"/><rect class="cls-1" x="0.1" width="141.53" height="141.53" rx="4.25" ry="4.25"/><rect class="cls-3" x="13.4" y="13.42" width="128.11" height="128.11" rx="3.84" ry="3.84"/><path class="cls-1" d="M21.61,25a3.79,3.79,0,0,1,3.93-3.63H129.37A3.79,3.79,0,0,1,133.3,25v87.48a3.79,3.79,0,0,1-3.93,3.63H25.54a3.79,3.79,0,0,1-3.93-3.63Z"/><path class="cls-4" d="M22.51,22.72a3.48,3.48,0,0,0-.9,2.29v87.48a3.79,3.79,0,0,0,3.93,3.63H129.37a4.05,4.05,0,0,0,3-1.34Z"/><circle class="cls-5" cx="77.81" cy="128.37" r="5.99"/><rect class="cls-3" x="0.12" y="54.28" width="48.98" height="87.29" rx="2.62" ry="2.62"/><path class="cls-3" d="M46.48,55.7a1.21,1.21,0,0,1,1.21,1.2v82a1.21,1.21,0,0,1-1.21,1.2H2.74a1.2,1.2,0,0,1-1.2-1.2v-82a1.2,1.2,0,0,1,1.2-1.2H46.48m0-1.42H2.74A2.63,2.63,0,0,0,.12,56.9v82a2.63,2.63,0,0,0,2.62,2.62H46.48A2.63,2.63,0,0,0,49.1,139v-82a2.63,2.63,0,0,0-2.62-2.62Z"/><circle class="cls-5" cx="24.61" cy="59.98" r="0.79"/><circle class="cls-5" cx="24.61" cy="135.6" r="2.96"/><path class="cls-1" d="M2.89,67.84a2.58,2.58,0,0,1,2.67-2.47h38.1a2.58,2.58,0,0,1,2.68,2.47v59.6a2.59,2.59,0,0,1-2.68,2.48H5.56a2.58,2.58,0,0,1-2.67-2.48Z"/><path class="cls-4" d="M3.5,66.28a2.35,2.35,0,0,0-.61,1.56v59.6a2.58,2.58,0,0,0,2.67,2.48h38.1a2.71,2.71,0,0,0,2.06-.92Z"/><rect class="cls-5" x="47.36" y="84.65" width="56.88" height="56.88" rx="1.71" ry="1.71"/><rect class="cls-6" x="47.36" y="91.98" width="56.88" height="11.07"/><rect class="cls-7" x="39.4" y="84.65" width="56.88" height="56.88" rx="1.71" ry="1.71"/><rect class="cls-5" x="75.02" y="92.65" width="15.84" height="5.95" rx="1.4" ry="1.4"/><path class="cls-8" d="M39.4,86.36v53.46a1.71,1.71,0,0,0,1.7,1.71H94.57a1.68,1.68,0,0,0,1.2-.5L39.9,85.15A1.71,1.71,0,0,0,39.4,86.36Z"/><rect class="cls-3" x="44.81" y="128.58" width="34.02" height="5.46" rx="1.4" ry="1.4"/><rect class="cls-3" x="44.81" y="120.52" width="34.02" height="5.46" rx="1.4" ry="1.4"/><rect class="cls-9" x="44.85" y="90.37" width="10.27" height="10.51" rx="0.53" ry="0.53" transform="translate(-52.98 63.35) rotate(-45)"/><rect class="cls-10" x="52.5" y="90.37" width="10.27" height="10.51" rx="0.53" ry="0.53" transform="translate(-50.74 68.76) rotate(-45)"/></svg>