<?xml version="1.0" encoding="UTF-8" standalone="no"?>
<svg width="142px" height="142px" viewBox="0 0 142 142" version="1.1" xmlns="http://www.w3.org/2000/svg" xmlns:xlink="http://www.w3.org/1999/xlink">
    <!-- Generator: Sketch 41.2 (35397) - http://www.bohemiancoding.com/sketch -->
    <title>pain-points</title>
    <desc>Created with Sketch.</desc>
    <defs>
        <path d="M3.95146176,0.0671 C3.49812471,0.0828679089 0.021584115,0.32466032 9.99999974e-05,4.03241702 L0.0001,137.949816 C0.00363978808,138.194692 0.117518814,141.132568 2.82226384,141.7991 L138.710753,141.7991 C139.894956,141.517564 141.732,140.644075 141.732,137.934 L141.732,4.067 C141.732,4.067 141.732,0.142481128 137.846143,0.0671 L3.95146176,0.0671 L3.95146176,0.0671 Z" id="path-1"></path>
        <path d="M0.943966111,0.3484 C0.405577503,0.932205492 0.0103474673,1.7817852 0.00020000008,3.01813136 L0.0002,136.955815 C0.00619282928,137.275574 0.174383516,140.933 4,140.933 L137.732,140.933 C137.732,140.933 139.40324,140.933 140.5852,139.85301 L140.5852,0.3484 L0.943966111,0.3484 L0.943966111,0.3484 Z" id="path-3"></path>
        <path d="M3.95146176,0.0671 C3.49812471,0.0828679089 0.021584115,0.32466032 9.99999974e-05,4.03241702 L0.0001,137.949816 C0.00363978808,138.194692 0.117518814,141.132568 2.82226384,141.7991 L138.710753,141.7991 C139.894956,141.517564 141.732,140.644075 141.732,137.934 L141.732,4.067 C141.732,4.067 141.732,0.142481128 137.846143,0.0671 L3.95146176,0.0671 L3.95146176,0.0671 Z" id="path-5"></path>
        <path d="M0.943966111,0.3484 C0.405577503,0.932205492 0.0103474673,1.7817852 0.00020000008,3.01813136 L0.0002,136.955815 C0.00619282928,137.275574 0.174383516,140.933 4,140.933 L137.732,140.933 C137.732,140.933 139.40324,140.933 140.5852,139.85301 L140.5852,0.3484 L0.943966111,0.3484 L0.943966111,0.3484 Z" id="path-7"></path>
        <path d="M3.95146176,0.0671 C3.49812471,0.0828679089 0.021584115,0.32466032 9.99999974e-05,4.03241702 L0.0001,137.949816 C0.00363978808,138.194692 0.117518814,141.132568 2.82226384,141.7991 L138.710753,141.7991 C139.894956,141.517564 141.732,140.644075 141.732,137.934 L141.732,4.067 C141.732,4.067 141.732,0.142481128 137.846143,0.0671 L3.95146176,0.0671 L3.95146176,0.0671 Z" id="path-9"></path>
        <path d="M0.943966111,0.3484 C0.405577503,0.932205492 0.0103474673,1.7817852 0.00020000008,3.01813136 L0.0002,136.955815 C0.00619282928,137.275574 0.174383516,140.933 4,140.933 L137.732,140.933 C137.732,140.933 139.40324,140.933 140.5852,139.85301 L140.5852,0.3484 L0.943966111,0.3484 L0.943966111,0.3484 Z" id="path-11"></path>
        <polygon id="path-13" points="0.806 84.002 84.742 84.002 84.742 0.066 0.806 0.066"></polygon>
    </defs>
    <g id="Page-1" stroke="none" stroke-width="1" fill="none" fill-rule="evenodd">
        <g id="AP-Interactive-Tool-v3" transform="translate(-109.000000, -2310.000000)">
            <g id="Page-1" transform="translate(0.000000, 1752.000000)">
                <g id="pain-points" transform="translate(109.000000, 558.000000)">
                    <g id="Group-87">
                        <mask id="mask-2" fill="white">
                            <use xlink:href="#path-1"></use>
                        </mask>
                        <g id="Clip-86"></g>
                        <path d="M141.7321,137.5461 C141.7321,139.8851 139.8191,141.7991 137.4801,141.7991 L4.2521,141.7991 C1.9131,141.7991 0.0001,139.8851 0.0001,137.5461 L0.0001,4.3181 C0.0001,1.9801 1.9131,0.0671 4.2521,0.0671 L137.4801,0.0671 C139.8191,0.0671 141.7321,1.9801 141.7321,4.3181 L141.7321,137.5461 Z" id="Fill-85" fill="#685B56" mask="url(#mask-2)"></path>
                    </g>
                    <g id="Group-90" transform="translate(0.000000, 1.000000)">
                        <mask id="mask-4" fill="white">
                            <use xlink:href="#path-3"></use>
                        </mask>
                        <g id="Clip-89"></g>
                        <path d="M0.0002,3.4534 L0.0002,136.6824 C0.0002,139.0194 1.9132,140.9334 4.2522,140.9334 L137.4802,140.9334 C138.7072,140.9334 139.8072,140.3984 140.5852,139.5604 L1.3722,0.3484 C0.5342,1.1264 0.0002,2.2264 0.0002,3.4534" id="Fill-88" fill="#5E514D" mask="url(#mask-4)"></path>
                    </g>
                    <g id="Group-93">
                        <mask id="mask-6" fill="white">
                            <use xlink:href="#path-5"></use>
                        </mask>
                        <g id="Clip-92"></g>
                        <path d="M141.7321,137.5461 C141.7321,139.8851 139.8191,141.7991 137.4801,141.7991 L4.2521,141.7991 C1.9131,141.7991 0.0001,139.8851 0.0001,137.5461 L0.0001,4.3181 C0.0001,1.9801 1.9131,0.0671 4.2521,0.0671 L137.4801,0.0671 C139.8191,0.0671 141.7321,1.9801 141.7321,4.3181 L141.7321,137.5461 Z" id="Fill-91" fill="#685B56" mask="url(#mask-6)"></path>
                    </g>
                    <g id="Group-96" transform="translate(0.000000, 1.000000)">
                        <mask id="mask-8" fill="white">
                            <use xlink:href="#path-7"></use>
                        </mask>
                        <g id="Clip-95"></g>
                        <path d="M0.0002,3.4534 L0.0002,136.6824 C0.0002,139.0194 1.9132,140.9334 4.2522,140.9334 L137.4802,140.9334 C138.7072,140.9334 139.8072,140.3984 140.5852,139.5604 L1.3722,0.3484 C0.5342,1.1264 0.0002,2.2264 0.0002,3.4534" id="Fill-94" fill="#5E514D" mask="url(#mask-8)"></path>
                    </g>
                    <g id="Group-99">
                        <mask id="mask-10" fill="white">
                            <use xlink:href="#path-9"></use>
                        </mask>
                        <g id="Clip-98"></g>
                        <path d="M141.7321,137.5461 C141.7321,139.8851 139.8191,141.7991 137.4801,141.7991 L4.2521,141.7991 C1.9131,141.7991 0.0001,139.8851 0.0001,137.5461 L0.0001,4.3181 C0.0001,1.9801 1.9131,0.0671 4.2521,0.0671 L137.4801,0.0671 C139.8191,0.0671 141.7321,1.9801 141.7321,4.3181 L141.7321,137.5461 Z" id="Fill-97" fill="#655ECC" mask="url(#mask-10)"></path>
                    </g>
                    <g id="Group-102" transform="translate(0.000000, 1.000000)">
                        <mask id="mask-12" fill="white">
                            <use xlink:href="#path-11"></use>
                        </mask>
                        <g id="Clip-101"></g>
                        <path d="M0.0002,3.4534 L0.0002,136.6824 C0.0002,139.0194 1.9132,140.9334 4.2522,140.9334 L137.4802,140.9334 C138.7072,140.9334 139.8072,140.3984 140.5852,139.5604 L1.3722,0.3484 C0.5342,1.1264 0.0002,2.2264 0.0002,3.4534" id="Fill-100" fill="#6F67E0" mask="url(#mask-12)"></path>
                    </g>
                    <g id="Group-105" transform="translate(28.000000, 29.000000)">
                        <mask id="mask-14" fill="white">
                            <use xlink:href="#path-13"></use>
                        </mask>
                        <g id="Clip-104"></g>
                        <path d="M84.7424,42.0334 C84.7424,65.2124 65.9524,84.0024 42.7744,84.0024 C19.5954,84.0024 0.8054,65.2124 0.8054,42.0334 C0.8054,18.8544 19.5954,0.0654 42.7744,0.0654 C65.9524,0.0654 84.7424,18.8544 84.7424,42.0334" id="Fill-103" fill="#8177E7" mask="url(#mask-14)"></path>
                    </g>
                    <path d="M94.2952,71.0334 C94.2952,84.0234 83.7642,94.5544 70.7742,94.5544 C57.7842,94.5544 47.2532,84.0234 47.2532,71.0334 C47.2532,58.0434 57.7842,47.5124 70.7742,47.5124 C83.7642,47.5124 94.2952,58.0434 94.2952,71.0334" id="Fill-106" fill="#F9F6F3"></path>
                    <path d="M80.3537,71.0334 C80.3537,76.3244 76.0647,80.6134 70.7737,80.6134 C65.4837,80.6134 61.1947,76.3244 61.1947,71.0334 C61.1947,65.7424 65.4837,61.4534 70.7737,61.4534 C76.0647,61.4534 80.3537,65.7424 80.3537,71.0334" id="Fill-108" fill="#5044DE"></path>
                    <path d="M77.5476,77.8069 L64.0006,64.2599 C67.7416,60.5189 73.8066,60.5189 77.5476,64.2589 C81.2886,67.9999 81.2886,74.0659 77.5476,77.8069" id="Fill-110" fill="#8177E7"></path>
                    <polyline id="Stroke-112" stroke="#FFFFFF" stroke-width="7" points="61.2414 19.9309 70.8664 10.3059 80.4914 19.9309"></polyline>
                    <polyline id="Stroke-114" stroke="#FFFFFF" stroke-width="7" points="61.2414 122.137 70.8664 131.761 80.4914 122.137"></polyline>
                    <polyline id="Stroke-116" stroke="#FFFFFF" stroke-width="7" points="121.4192 61.3752 131.0432 71.0002 121.4192 80.6242"></polyline>
                    <polyline id="Stroke-118" stroke="#FFFFFF" stroke-width="7" points="19.2131 61.3752 9.5881 71.0002 19.2131 80.6242"></polyline>
                </g>
            </g>
        </g>
    </g>
</svg>